# xmcd
#
# Track frame offsets: 
#        150
#        14557
#        30770
#        43535
#        57580
#        70415
#        81794
#        95881
#        111732
#        123555
#        136975
#        146543
#        160943
#        174184
#        190339
#        207087
#        216930
#        231248
#        245876
#        257584
#        270854
#        288957
#
# Disc length: 4131 seconds
#
# Revision: 0
# Processed by: cddbd v1.5.2PL0 Copyright (c) Steve Scherf et al.
# Submitted via: ExactAudioCopy v1.1
#
DISCID=4a102116
DTITLE=Raymond Van Het Groenewoud - Archivaris - CD 2
DYEAR=2018
DGENRE=Pop
TTITLE0=Stapelgek Op Jou
TTITLE1=Sire Rock En Roll
TTITLE2=Het Spek Is Aangebrand
TTITLE3=Ontevreden
TTITLE4=Ik Ben Alleen
TTITLE5=Mijnheer De Postbode
TTITLE6=Niets Heeft Nog Zin (Zonder Jou)
TTITLE7=Omdat Ik Van Je Hou
TTITLE8=Hallelujah, Ze Is Van Mij
TTITLE9=Bostella
TTITLE10=In De Gracht
TTITLE11=Intimiteit
TTITLE12=Gelukkig Zijn
TTITLE13=Liefde Voor Muziek
TTITLE14=Genieten
TTITLE15=De Helleveeg
TTITLE16=Eerlijkheid
TTITLE17=Total Loss (Gratis Bier In Nederland)
TTITLE18=Liefde Is Een Wortel
TTITLE19=Torremolinos
TTITLE20=Warme Dagen
TTITLE21=Je Zou Eens Moeten Weten (Hoe Lekker Dat Dat Is)
EXTD=
EXTT0=
EXTT1=
EXTT2=
EXTT3=
EXTT4=
EXTT5=
EXTT6=
EXTT7=
EXTT8=
EXTT9=
EXTT10=
EXTT11=
EXTT12=
EXTT13=
EXTT14=
EXTT15=
EXTT16=
EXTT17=
EXTT18=
EXTT19=
EXTT20=
EXTT21=
PLAYORDER=
